<?xml version="1.0" encoding="UTF-8"?>
<svg xmlns="http://www.w3.org/2000/svg" viewBox="0 0 192 192" width="32" height="32"><path d="M96 16c-44.112 0-80 35.888-80 80s35.888 80 80 80 80-35.888 80-80-35.888-80-80-80zm23.408 148.082c9.485-10.65 16.462-27.695 19.25-48.076h-8.14c-4.083 27.162-16.174 48.17-30.518 51.512v-51.512h-8v51.512c-14.344-3.342-26.435-24.35-30.517-51.512H53.34c2.789 20.38 9.766 37.427 19.25 48.076-27.036-9.324-46.836-34.319-48.474-64.082H32v-8h-7.883c1.638-29.763 21.438-54.758 48.475-64.082C63.106 38.568 56.128 55.617 53.34 76h8.142C65.562 48.835 77.655 27.824 92 24.482V76h8V24.482c14.345 3.342 26.437 24.353 30.518 51.518h8.142c-2.788-20.383-9.766-37.432-19.252-48.082 27.037 9.324 46.837 34.319 48.475 64.082H160v8h7.883c-1.638 29.763-21.438 54.758-48.475 64.082zM41.865 85h8.378l2.865 12.806L56.538 85h6.512l2.995 12.806L69.344 85h7.684l-6.86 22.704h-7.683L59.36 95.592l-3.169 12.112h-7.814L41.866 85zm36.553 0h8.378l2.865 12.806L93.091 85h6.512l2.995 12.806 3.3-12.806h7.683l-6.86 22.704h-7.683l-3.125-12.112-3.169 12.112H84.93L78.418 85zm36.554 0h8.378l2.865 12.806L129.645 85h6.511l2.995 12.806 3.3-12.806h7.684l-6.86 22.704h-7.683l-3.126-12.112-3.17 12.112h-7.814L114.972 85z" style="fill: #007bc0;"/></svg>
