<svg xmlns="http://www.w3.org/2000/svg" viewBox="0 0 192 192"><path d="M160 176H32V82.343l64-64 64 64V176zm-120-8h112V85.657l-56-56-56 56V168zm56-59.567c-8.639 0-15.666-7.13-15.666-15.892S87.36 76.648 96 76.648s15.666 7.13 15.666 15.893S104.64 108.433 96 108.433zm0-23.785c-4.228 0-7.667 3.541-7.667 7.893s3.44 7.892 7.667 7.892 7.667-3.54 7.667-7.892-3.44-7.893-7.667-7.893zm0 75.344l-3.463-5.99c-.192-.332-19.21-33.23-23.312-40.398C65.904 108.16 64 100.489 64 92.541 64 74.598 78.355 60 96 60s32 14.598 32 32.54c0 7.947-1.903 15.62-5.224 21.064-4.103 7.168-23.121 40.066-23.313 40.398L96 159.992zM96 68c-13.234 0-24 11.009-24 24.54 0 6.443 1.524 12.774 4.077 16.936l.062.105c2.97 5.191 14.12 24.49 19.861 34.425 5.741-9.934 16.89-29.234 19.862-34.425l.061-.104C118.476 105.313 120 98.982 120 92.54 120 79.009 109.234 68 96 68z"/></svg>