<svg xmlns="http://www.w3.org/2000/svg" width="48" height="48">
    <path
        d="M7.2 0h33.6C44.778 0 48 3.223 48 7.2v33.6c0 3.977-3.223 7.2-7.2 7.2H7.2A7.199 7.199 0 010 40.8V7.2C0 3.222 3.223 0 7.2 0zm0 0"
        fill="#0a66c2" />
    <path
        d="M16.781 12.938a3.47 3.47 0 01-3.468 3.468 3.47 3.47 0 01-3.47-3.468 3.47 3.47 0 013.47-3.47 3.47 3.47 0 013.468 3.47zm0 0"
        fill="#fff" />
    <path d="M22.875 18.188V36.75m-9.563-18.563V36.75" fill="#fff" stroke-width="6.1875" stroke="#fff" />
    <path
        d="M25.875 26.438c0-1.875 1.219-3.75 3.375-3.75 2.25 0 3.094 1.687 3.094 4.218v9.844h6.187V26.156c0-5.718-3-8.343-7.125-8.343-3.187 0-4.781 1.78-5.531 3"
        fill="#fff" />
</svg>