<?xml version="1.0" encoding="UTF-8"?>
<svg xmlns="http://www.w3.org/2000/svg" viewBox="0 0 192 192" width="32" height="32"><path d="M16 32v128h160V32H16zm152 8v24H24V40h144zM24 152V72h144v80H24zm136-96h-8v-8h8v8zm-16 0h-8v-8h8v8zm-74.656 44h7.684l-6.86 22.704h-7.683l-3.126-12.112-3.169 12.112h-7.814L41.866 100h8.377l2.865 12.806L56.538 100h6.512l2.995 12.806L69.344 100zm36.553 0h7.684l-6.86 22.704h-7.683l-3.125-12.112-3.169 12.112H84.93L78.418 100h8.378l2.865 12.806L93.091 100h6.512l2.995 12.806 3.3-12.806zm36.553 0h7.685l-6.86 22.704h-7.683l-3.126-12.112-3.17 12.112h-7.814L114.972 100h8.378l2.865 12.806 3.43-12.806h6.511l2.995 12.806 3.3-12.806z" style="fill: #0a66c2;"/></svg>
