<?xml version="1.0" encoding="UTF-8"?>
<svg xmlns="http://www.w3.org/2000/svg" xmlns:xlink="http://www.w3.org/1999/xlink" width="16px" height="16px" viewBox="0 0 16 16" version="1.1">
<g id="surface1">
<path style=" stroke:none;fill-rule:nonzero;fill:rgb(0%,48.235294%,75.294118%);fill-opacity:1;" d="M 1.332031 2.667969 L 1.332031 13.332031 L 14.667969 13.332031 L 14.667969 2.667969 Z M 14 3.332031 L 14 5.332031 L 2 5.332031 L 2 3.332031 Z M 2 12.667969 L 2 6 L 14 6 L 14 12.667969 Z M 13.332031 4.667969 L 12.667969 4.667969 L 12.667969 4 L 13.332031 4 Z M 12 4.667969 L 11.332031 4.667969 L 11.332031 4 L 12 4 Z M 5.777344 8.332031 L 6.417969 8.332031 L 5.847656 10.226562 L 5.207031 10.226562 L 4.945312 9.214844 L 4.683594 10.226562 L 4.03125 10.226562 L 3.488281 8.332031 L 4.1875 8.332031 L 4.425781 9.402344 L 4.710938 8.332031 L 5.253906 8.332031 L 5.503906 9.402344 Z M 8.824219 8.332031 L 9.464844 8.332031 L 8.894531 10.226562 L 8.253906 10.226562 L 7.992188 9.214844 L 7.730469 10.226562 L 7.078125 10.226562 L 6.535156 8.332031 L 7.234375 8.332031 L 7.472656 9.402344 L 7.757812 8.332031 L 8.300781 8.332031 L 8.550781 9.402344 Z M 11.871094 8.332031 L 12.511719 8.332031 L 11.941406 10.226562 L 11.300781 10.226562 L 11.039062 9.214844 L 10.773438 10.226562 L 10.125 10.226562 L 9.582031 8.332031 L 10.277344 8.332031 L 10.519531 9.402344 L 10.804688 8.332031 L 11.347656 8.332031 L 11.597656 9.402344 Z M 11.871094 8.332031 "/>
</g>
</svg>
